<svg xmlns="http://www.w3.org/2000/svg" viewBox="0 0 512 512" role="img" aria-label="Gutenberg Text Cleaner">
  <rect width="512" height="512" rx="96" fill="#3d6b50"/>
  <path d="M 100 146 Q 178 130 252 156 L 252 388 Q 178 362 100 378 Z" fill="#faf9f4" stroke="#1a1810" stroke-width="4" stroke-linejoin="round"/>
  <path d="M 412 146 Q 334 130 260 156 L 260 388 Q 334 362 412 378 Z" fill="#faf9f4" stroke="#1a1810" stroke-width="4" stroke-linejoin="round"/>
  <g stroke="#5a5545" stroke-width="8" stroke-linecap="round" opacity="0.7">
    <line x1="128" y1="200" x2="230" y2="200"/>
    <line x1="128" y1="232" x2="218" y2="232"/>
    <line x1="128" y1="264" x2="228" y2="264"/>
    <line x1="128" y1="296" x2="208" y2="296"/>
    <line x1="128" y1="328" x2="222" y2="328"/>
    <line x1="282" y1="200" x2="384" y2="200"/>
    <line x1="282" y1="232" x2="372" y2="232"/>
    <line x1="282" y1="264" x2="384" y2="264"/>
    <line x1="282" y1="296" x2="362" y2="296"/>
    <line x1="282" y1="328" x2="378" y2="328"/>
  </g>
</svg>
